<svg xmlns="http://www.w3.org/2000/svg" viewBox="0 0 400 400" width="400" height="400"><defs><radialGradient id="bg1" cx="50%" cy="35%" r="75%"><stop offset="0%" stop-color="#FFFFFF"/><stop offset="55%" stop-color="#FFF1F2"/><stop offset="100%" stop-color="#FFD9DD"/></radialGradient><radialGradient id="core1" cx="50%" cy="45%" r="60%"><stop offset="0%" stop-color="#FFFFFF" stop-opacity=".85"/><stop offset="100%" stop-color="#FFFFFF" stop-opacity="0"/></radialGradient></defs><rect width="400" height="400" fill="url(#bg1)"/><g><circle cx="200" cy="185" r="92" fill="#E23A4C" opacity="0.1925"/><circle cx="200" cy="185" r="76" fill="#E23A4C" opacity="0.22399999999999998"/><circle cx="200" cy="185" r="60" fill="#E23A4C" opacity="0.2555"/><circle cx="200" cy="185" r="44" fill="#E23A4C" opacity="0.287"/><circle cx="200" cy="185" r="28" fill="#E23A4C" opacity="0.3185"/><ellipse cx="242.9" cy="185.0" rx="44" ry="34.0" fill="#E23A4C" opacity="0.9" transform="rotate(0 242.9 185.0)"/><ellipse cx="229.9140355037961" cy="210.10085615825938" rx="41" ry="31.5" fill="#F26D78" opacity="0.9" transform="rotate(40 229.9140355037961 210.10085615825938)"/><ellipse cx="206.11241585387594" cy="219.66523290602973" rx="38" ry="29.0" fill="#E23A4C" opacity="0.9" transform="rotate(80 206.11241585387594 219.66523290602973)"/><ellipse cx="184.32500000000002" cy="212.14989640864215" rx="35" ry="26.5" fill="#F26D78" opacity="0.9" transform="rotate(120 184.32500000000002 212.14989640864215)"/><ellipse cx="174.15845292838753" cy="194.4055539414559" rx="32" ry="24.0" fill="#E23A4C" opacity="0.9" transform="rotate(160 174.15845292838753 194.4055539414559)"/><ellipse cx="177.77626951841327" cy="176.91122361034795" rx="29" ry="21.5" fill="#F26D78" opacity="0.9" transform="rotate(200 177.77626951841327 176.91122361034795)"/><ellipse cx="190.1" cy="167.8526970050681" rx="26" ry="19.0" fill="#E23A4C" opacity="0.9" transform="rotate(240 190.1 167.8526970050681)"/><ellipse cx="202.76968843378754" cy="169.29231633945528" rx="23" ry="16.5" fill="#F26D78" opacity="0.9" transform="rotate(280 202.76968843378754 169.29231633945528)"/><ellipse cx="209.26913776173964" cy="177.22226992279286" rx="20" ry="14.0" fill="#E23A4C" opacity="0.9" transform="rotate(320 209.26913776173964 177.22226992279286)"/><circle cx="200" cy="185" r="26" fill="#FFD66B"/><circle cx="200" cy="185" r="26" fill="url(#core1)"/></g><path d="M200 300 Q196 340 200 372" stroke="#5FA36B" stroke-width="7" fill="none" stroke-linecap="round"/><path d="M200 330 Q150 320 138 286 Q180 292 200 322 Z" fill="#6FB47C"/><path d="M200 348 Q252 340 262 306 Q220 312 200 340 Z" fill="#7FBE87"/><circle cx="348.9" cy="208.3" r="2" fill="#FFD66B" opacity=".45"/><circle cx="258.6" cy="328.1" r="3" fill="#FFD66B" opacity=".45"/><circle cx="109.7" cy="309.8" r="4" fill="#FFD66B" opacity=".45"/><circle cx="51.1" cy="171.7" r="2" fill="#FFD66B" opacity=".45"/><circle cx="141.4" cy="51.9" r="3" fill="#FFD66B" opacity=".45"/><circle cx="290.3" cy="70.2" r="4" fill="#FFD66B" opacity=".45"/></svg>